<svg xmlns="http://www.w3.org/2000/svg" viewBox="0 0 648.5 458.58"><defs><style>.cls-1,.cls-5{fill:#fff;}.cls-2{fill:none;stroke:#444058;stroke-miterlimit:10;stroke-width:1.92px;}.cls-3{fill:#fdd5b5;}.cls-10,.cls-3,.cls-4,.cls-5,.cls-6,.cls-7{fill-rule:evenodd;}.cls-4{fill:#dcb799;}.cls-13,.cls-6{fill:#024e78;}.cls-7{fill:#5994ca;}.cls-8{fill:#d8e2e8;}.cls-9{fill:#ff4c41;}.cls-10{fill:#fdf0e6;}.cls-11{opacity:0.5;}.cls-12{fill:#444058;}.cls-14{fill:#ffd25b;}.cls-15{fill:#f4f4f4;}</style></defs><title>youtuber-category-image</title><g id="YT"><path class="cls-1" d="M187.85,299.14a.5.5,0,0,1-.39-.18.66.66,0,0,1-.17-.44V294.9h-3.24a.54.54,0,0,1-.4-.19.66.66,0,0,1-.16-.44.59.59,0,0,1,.56-.62h3.24V290a.56.56,0,1,1,1.12,0v3.62h3.25a.63.63,0,0,1,0,1.25h-3.25v3.62A.59.59,0,0,1,187.85,299.14Z" transform="translate(-18.13 -22.51)"/><path class="cls-1" d="M418.48,217.37a.54.54,0,0,1-.4-.19.68.68,0,0,1-.16-.44v-3.62h-3.24a.53.53,0,0,1-.4-.18.7.7,0,0,1-.16-.44.6.6,0,0,1,.56-.63h3.24v-3.62a.56.56,0,1,1,1.12,0v3.62h3.24a.61.61,0,0,1,.57.63.6.6,0,0,1-.56.62H419v3.62A.6.6,0,0,1,418.48,217.37Z" transform="translate(-18.13 -22.51)"/><path class="cls-1" d="M209.8,138.64a.53.53,0,0,1-.4-.18.7.7,0,0,1-.16-.44V134.4H206a.53.53,0,0,1-.4-.18.66.66,0,0,1-.17-.45.6.6,0,0,1,.57-.62h3.24v-3.62a.56.56,0,1,1,1.12,0v3.62h3.24a.63.63,0,0,1,0,1.25h-3.24V138A.59.59,0,0,1,209.8,138.64Z" transform="translate(-18.13 -22.51)"/><path class="cls-1" d="M173.24,230.46a2.55,2.55,0,1,1,2.53,2.83A2.69,2.69,0,0,1,173.24,230.46Z" transform="translate(-18.13 -22.51)"/><path class="cls-2" d="M203.13,222.28a1.94,1.94,0,1,1,1.93,2.16A2,2,0,0,1,203.13,222.28Z" transform="translate(-18.13 -22.51)"/><path class="cls-2" d="M394.16,233.13a1.94,1.94,0,1,1,1.93,2.16A2,2,0,0,1,394.16,233.13Z" transform="translate(-18.13 -22.51)"/><path class="cls-2" d="M283,308.53a1.94,1.94,0,1,1,1.93,2.16A2,2,0,0,1,283,308.53Z" transform="translate(-18.13 -22.51)"/><path class="cls-2" d="M352.12,128.9a1.94,1.94,0,1,1,1.93,2.16A2,2,0,0,1,352.12,128.9Z" transform="translate(-18.13 -22.51)"/><path class="cls-1" d="M345.41,166.65a2.55,2.55,0,1,1,2.54,2.82A2.69,2.69,0,0,1,345.41,166.65Z" transform="translate(-18.13 -22.51)"/><path class="cls-1" d="M382.59,286.88a2.55,2.55,0,1,1,2.54,2.83A2.69,2.69,0,0,1,382.59,286.88Z" transform="translate(-18.13 -22.51)"/><path class="cls-1" d="M344.42,293.81a.53.53,0,0,1-.4-.19.62.62,0,0,1-.17-.44v-3.62h-3.24a.5.5,0,0,1-.39-.18.64.64,0,0,1-.17-.44.6.6,0,0,1,.56-.63h3.24v-3.62a.57.57,0,1,1,1.13,0v3.62h3.24a.63.63,0,0,1,0,1.25H345v3.62A.6.6,0,0,1,344.42,293.81Z" transform="translate(-18.13 -22.51)"/><path class="cls-1" d="M575,212a.5.5,0,0,1-.39-.18.66.66,0,0,1-.17-.44v-3.62h-3.24a.57.57,0,0,1-.4-.18.71.71,0,0,1-.16-.45.59.59,0,0,1,.56-.62h3.24v-3.62a.56.56,0,1,1,1.12,0v3.62h3.25a.63.63,0,0,1,0,1.25H575.6v3.62A.59.59,0,0,1,575,212Z" transform="translate(-18.13 -22.51)"/><path class="cls-1" d="M366.36,133.31a.53.53,0,0,1-.4-.18.71.71,0,0,1-.16-.45v-3.61h-3.24a.54.54,0,0,1-.4-.19.61.61,0,0,1-.16-.44.6.6,0,0,1,.56-.63h3.24V124.2a.56.56,0,1,1,1.12,0v3.62h3.24a.63.63,0,0,1,0,1.25h-3.24v3.61A.6.6,0,0,1,366.36,133.31Z" transform="translate(-18.13 -22.51)"/><path class="cls-1" d="M329.8,225.12a2.55,2.55,0,1,1,2.53,2.83A2.69,2.69,0,0,1,329.8,225.12Z" transform="translate(-18.13 -22.51)"/><path class="cls-2" d="M359.69,217a1.95,1.95,0,1,1,1.93,2.16A2.06,2.06,0,0,1,359.69,217Z" transform="translate(-18.13 -22.51)"/><path class="cls-2" d="M550.72,227.8a1.95,1.95,0,1,1,1.93,2.16A2.06,2.06,0,0,1,550.72,227.8Z" transform="translate(-18.13 -22.51)"/><path class="cls-2" d="M439.56,303.2a1.95,1.95,0,1,1,1.93,2.16A2.06,2.06,0,0,1,439.56,303.2Z" transform="translate(-18.13 -22.51)"/><path class="cls-2" d="M508.68,123.57a1.95,1.95,0,1,1,1.93,2.16A2.06,2.06,0,0,1,508.68,123.57Z" transform="translate(-18.13 -22.51)"/><path class="cls-1" d="M502,161.31a2.55,2.55,0,1,1,2.53,2.83A2.69,2.69,0,0,1,502,161.31Z" transform="translate(-18.13 -22.51)"/><path class="cls-1" d="M539.16,281.54a2.55,2.55,0,1,1,2.53,2.83A2.69,2.69,0,0,1,539.16,281.54Z" transform="translate(-18.13 -22.51)"/><path class="cls-1" d="M198.21,239.21a.53.53,0,0,1-.4-.18.63.63,0,0,1-.16-.44V235H194.4a.5.5,0,0,1-.39-.18.66.66,0,0,1-.17-.44.6.6,0,0,1,.56-.63h3.25V230.1a.56.56,0,1,1,1.12,0v3.62H202a.63.63,0,0,1,0,1.25h-3.24v3.62A.59.59,0,0,1,198.21,239.21Z" transform="translate(-18.13 -22.51)"/><path class="cls-1" d="M428.83,157.44a.55.55,0,0,1-.39-.18.66.66,0,0,1-.17-.45V153.2H425a.51.51,0,0,1-.39-.19.64.64,0,0,1-.17-.44.6.6,0,0,1,.56-.63h3.24v-3.61a.57.57,0,1,1,1.13,0v3.62h3.24a.6.6,0,0,1,.56.63.6.6,0,0,1-.56.63H429.4v3.61A.6.6,0,0,1,428.83,157.44Z" transform="translate(-18.13 -22.51)"/><path class="cls-1" d="M220.15,78.72a.51.51,0,0,1-.39-.19.62.62,0,0,1-.17-.44V74.47h-3.24a.53.53,0,0,1-.4-.18.68.68,0,0,1-.16-.44.6.6,0,0,1,.56-.63h3.24V69.6a.56.56,0,1,1,1.12,0v3.62H224a.6.6,0,0,1,.56.63.59.59,0,0,1-.56.62h-3.25v3.62A.6.6,0,0,1,220.15,78.72Z" transform="translate(-18.13 -22.51)"/><path class="cls-1" d="M183.59,170.53a2.55,2.55,0,1,1,2.53,2.83A2.69,2.69,0,0,1,183.59,170.53Z" transform="translate(-18.13 -22.51)"/><path class="cls-2" d="M213.48,162.36a1.95,1.95,0,1,1,1.94,2.15A2.06,2.06,0,0,1,213.48,162.36Z" transform="translate(-18.13 -22.51)"/><path class="cls-2" d="M404.51,173.21a1.95,1.95,0,1,1,1.94,2.15A2.06,2.06,0,0,1,404.51,173.21Z" transform="translate(-18.13 -22.51)"/><path class="cls-2" d="M293.35,248.61a1.95,1.95,0,1,1,1.93,2.16A2.06,2.06,0,0,1,293.35,248.61Z" transform="translate(-18.13 -22.51)"/><path class="cls-2" d="M362.47,69a1.95,1.95,0,1,1,1.94,2.16A2.06,2.06,0,0,1,362.47,69Z" transform="translate(-18.13 -22.51)"/><path class="cls-1" d="M355.77,106.72a2.55,2.55,0,1,1,2.53,2.83A2.69,2.69,0,0,1,355.77,106.72Z" transform="translate(-18.13 -22.51)"/><path class="cls-1" d="M393,227a2.55,2.55,0,1,1,2.53,2.83A2.69,2.69,0,0,1,393,227Z" transform="translate(-18.13 -22.51)"/><path class="cls-1" d="M431.64,227a.57.57,0,0,1-.4-.18.71.71,0,0,1-.16-.45v-3.61h-3.24a.53.53,0,0,1-.4-.19.64.64,0,0,1-.17-.44.6.6,0,0,1,.57-.63h3.24v-3.61a.56.56,0,1,1,1.12,0v3.61h3.24a.6.6,0,0,1,.56.63.6.6,0,0,1-.56.63H432.2v3.61A.6.6,0,0,1,431.64,227Z" transform="translate(-18.13 -22.51)"/><path class="cls-1" d="M662.27,145.2a.53.53,0,0,1-.4-.18.65.65,0,0,1-.16-.44V141h-3.25a.53.53,0,0,1-.39-.18.66.66,0,0,1-.17-.45.59.59,0,0,1,.56-.62h3.25v-3.62a.56.56,0,1,1,1.12,0v3.62h3.24a.63.63,0,0,1,0,1.25h-3.24v3.62A.59.59,0,0,1,662.27,145.2Z" transform="translate(-18.13 -22.51)"/><path class="cls-1" d="M453.58,66.48a.5.5,0,0,1-.39-.18.66.66,0,0,1-.17-.44V62.24h-3.24a.54.54,0,0,1-.4-.19.66.66,0,0,1-.16-.44.59.59,0,0,1,.56-.62H453V57.37a.56.56,0,1,1,1.12,0V61h3.25a.63.63,0,0,1,0,1.25h-3.24v3.62A.6.6,0,0,1,453.58,66.48Z" transform="translate(-18.13 -22.51)"/><path class="cls-1" d="M417,158.29a2.55,2.55,0,1,1,2.54,2.83A2.7,2.7,0,0,1,417,158.29Z" transform="translate(-18.13 -22.51)"/><path class="cls-2" d="M446.91,150.12a1.95,1.95,0,1,1,1.94,2.16A2.06,2.06,0,0,1,446.91,150.12Z" transform="translate(-18.13 -22.51)"/><path class="cls-2" d="M637.94,161a1.95,1.95,0,1,1,1.94,2.16A2.06,2.06,0,0,1,637.94,161Z" transform="translate(-18.13 -22.51)"/><path class="cls-2" d="M526.78,236.37a1.95,1.95,0,1,1,1.94,2.16A2.06,2.06,0,0,1,526.78,236.37Z" transform="translate(-18.13 -22.51)"/><path class="cls-2" d="M595.9,56.74a1.95,1.95,0,1,1,1.94,2.16A2.06,2.06,0,0,1,595.9,56.74Z" transform="translate(-18.13 -22.51)"/><path class="cls-1" d="M589.2,94.48a2.55,2.55,0,1,1,2.53,2.83A2.69,2.69,0,0,1,589.2,94.48Z" transform="translate(-18.13 -22.51)"/><path class="cls-1" d="M626.38,214.71a2.55,2.55,0,1,1,2.54,2.83A2.68,2.68,0,0,1,626.38,214.71Z" transform="translate(-18.13 -22.51)"/><path class="cls-1" d="M299.24,375.07a.54.54,0,0,1-.4-.18.66.66,0,0,1-.17-.45v-3.61h-3.24a.51.51,0,0,1-.39-.19.64.64,0,0,1-.17-.44.6.6,0,0,1,.56-.63h3.24V366a.57.57,0,1,1,1.13,0v3.61H303a.63.63,0,0,1,0,1.26H299.8v3.61A.6.6,0,0,1,299.24,375.07Z" transform="translate(-18.13 -22.51)"/><path class="cls-1" d="M529.86,293.29a.5.5,0,0,1-.39-.18.66.66,0,0,1-.17-.44v-3.62h-3.24a.57.57,0,0,1-.4-.18.71.71,0,0,1-.16-.45.59.59,0,0,1,.56-.62h3.24v-3.62a.56.56,0,1,1,1.12,0v3.62h3.25a.63.63,0,0,1,0,1.25h-3.25v3.62A.59.59,0,0,1,529.86,293.29Z" transform="translate(-18.13 -22.51)"/><path class="cls-1" d="M321.18,214.57a.53.53,0,0,1-.4-.18.7.7,0,0,1-.16-.44v-3.62h-3.24a.57.57,0,0,1-.4-.18.65.65,0,0,1-.16-.45.59.59,0,0,1,.56-.62h3.24v-3.62a.56.56,0,1,1,1.12,0v3.62H325a.63.63,0,0,1,0,1.25h-3.24V214A.59.59,0,0,1,321.18,214.57Z" transform="translate(-18.13 -22.51)"/><path class="cls-1" d="M284.62,306.38a2.55,2.55,0,1,1,2.53,2.83A2.68,2.68,0,0,1,284.62,306.38Z" transform="translate(-18.13 -22.51)"/><path class="cls-2" d="M314.51,298.21a1.95,1.95,0,1,1,1.93,2.16A2.06,2.06,0,0,1,314.51,298.21Z" transform="translate(-18.13 -22.51)"/><path class="cls-2" d="M505.54,309.06a1.95,1.95,0,1,1,1.93,2.16A2.06,2.06,0,0,1,505.54,309.06Z" transform="translate(-18.13 -22.51)"/><path class="cls-2" d="M394.38,384.46a1.95,1.95,0,1,1,1.93,2.16A2.05,2.05,0,0,1,394.38,384.46Z" transform="translate(-18.13 -22.51)"/><path class="cls-2" d="M463.5,204.83a1.95,1.95,0,1,1,1.93,2.16A2.05,2.05,0,0,1,463.5,204.83Z" transform="translate(-18.13 -22.51)"/><path class="cls-1" d="M456.8,242.57a2.55,2.55,0,1,1,2.53,2.83A2.69,2.69,0,0,1,456.8,242.57Z" transform="translate(-18.13 -22.51)"/><path class="cls-1" d="M494,362.81a2.55,2.55,0,1,1,2.53,2.82A2.69,2.69,0,0,1,494,362.81Z" transform="translate(-18.13 -22.51)"/><path class="cls-1" d="M32.75,195.86a.53.53,0,0,1-.4-.18.7.7,0,0,1-.16-.44v-3.62H29a.57.57,0,0,1-.4-.18.71.71,0,0,1-.16-.45.59.59,0,0,1,.56-.62h3.24v-3.62a.56.56,0,1,1,1.12,0v3.62h3.24a.63.63,0,0,1,0,1.25H33.31v3.62A.59.59,0,0,1,32.75,195.86Z" transform="translate(-18.13 -22.51)"/><path class="cls-1" d="M263.38,114.09a.54.54,0,0,1-.4-.19.68.68,0,0,1-.16-.44v-3.62h-3.24a.53.53,0,0,1-.4-.18.65.65,0,0,1-.16-.44.6.6,0,0,1,.56-.63h3.24V105a.56.56,0,1,1,1.12,0v3.62h3.24a.63.63,0,0,1,0,1.25h-3.24v3.62A.6.6,0,0,1,263.38,114.09Z" transform="translate(-18.13 -22.51)"/><path class="cls-1" d="M54.7,35.37a.54.54,0,0,1-.4-.19.63.63,0,0,1-.16-.44V31.12H50.89a.5.5,0,0,1-.39-.18.66.66,0,0,1-.17-.44.6.6,0,0,1,.56-.63h3.25V26.25a.56.56,0,1,1,1.12,0v3.62H58.5a.63.63,0,0,1,0,1.25H55.26v3.62A.6.6,0,0,1,54.7,35.37Z" transform="translate(-18.13 -22.51)"/><path class="cls-1" d="M18.13,127.18a2.7,2.7,0,0,1,2.54-2.83,2.85,2.85,0,0,1,0,5.66A2.7,2.7,0,0,1,18.13,127.18Z" transform="translate(-18.13 -22.51)"/><path class="cls-2" d="M48,119A1.94,1.94,0,1,1,50,121.16,2,2,0,0,1,48,119Z" transform="translate(-18.13 -22.51)"/><path class="cls-2" d="M239.06,129.85A1.94,1.94,0,1,1,241,132,2,2,0,0,1,239.06,129.85Z" transform="translate(-18.13 -22.51)"/><path class="cls-2" d="M127.9,205.26a1.94,1.94,0,1,1,1.93,2.15A2.05,2.05,0,0,1,127.9,205.26Z" transform="translate(-18.13 -22.51)"/><path class="cls-2" d="M197,25.63A1.94,1.94,0,1,1,199,27.78,2,2,0,0,1,197,25.63Z" transform="translate(-18.13 -22.51)"/><path class="cls-1" d="M190.31,63.37a2.55,2.55,0,1,1,2.54,2.83A2.69,2.69,0,0,1,190.31,63.37Z" transform="translate(-18.13 -22.51)"/><path class="cls-1" d="M227.49,183.6a2.55,2.55,0,1,1,2.54,2.83A2.7,2.7,0,0,1,227.49,183.6Z" transform="translate(-18.13 -22.51)"/><path class="cls-1" d="M115.69,413a.53.53,0,0,1-.4-.18.7.7,0,0,1-.16-.44v-3.62h-3.24a.57.57,0,0,1-.4-.18.65.65,0,0,1-.16-.45.59.59,0,0,1,.56-.62h3.24v-3.62a.56.56,0,1,1,1.12,0v3.62h3.24a.63.63,0,0,1,0,1.25h-3.24v3.62A.59.59,0,0,1,115.69,413Z" transform="translate(-18.13 -22.51)"/><path class="cls-1" d="M346.32,331.26a.54.54,0,0,1-.4-.19.66.66,0,0,1-.16-.44V327h-3.24a.52.52,0,0,1-.4-.18.64.64,0,0,1-.17-.44.6.6,0,0,1,.57-.63h3.24v-3.62a.56.56,0,1,1,1.12,0v3.62h3.24a.63.63,0,0,1,0,1.25h-3.24v3.62A.6.6,0,0,1,346.32,331.26Z" transform="translate(-18.13 -22.51)"/><path class="cls-1" d="M137.64,252.54a.53.53,0,0,1-.4-.19.64.64,0,0,1-.17-.44v-3.62h-3.24a.5.5,0,0,1-.39-.18.66.66,0,0,1-.17-.44.6.6,0,0,1,.56-.63h3.24v-3.62a.57.57,0,1,1,1.13,0V247h3.24a.63.63,0,0,1,0,1.25H138.2v3.62A.6.6,0,0,1,137.64,252.54Z" transform="translate(-18.13 -22.51)"/><path class="cls-1" d="M101.07,344.35a2.55,2.55,0,1,1,2.54,2.83A2.7,2.7,0,0,1,101.07,344.35Z" transform="translate(-18.13 -22.51)"/><path class="cls-2" d="M131,336.18a1.95,1.95,0,1,1,1.94,2.15A2.06,2.06,0,0,1,131,336.18Z" transform="translate(-18.13 -22.51)"/><path class="cls-2" d="M322,347a1.94,1.94,0,1,1,1.93,2.15A2,2,0,0,1,322,347Z" transform="translate(-18.13 -22.51)"/><path class="cls-2" d="M210.83,422.43a1.95,1.95,0,1,1,1.94,2.15A2.06,2.06,0,0,1,210.83,422.43Z" transform="translate(-18.13 -22.51)"/><path class="cls-2" d="M280,242.8a1.94,1.94,0,1,1,1.93,2.15A2.05,2.05,0,0,1,280,242.8Z" transform="translate(-18.13 -22.51)"/><path class="cls-1" d="M273.25,280.54a2.55,2.55,0,1,1,2.54,2.83A2.69,2.69,0,0,1,273.25,280.54Z" transform="translate(-18.13 -22.51)"/><path class="cls-1" d="M310.43,400.77A2.55,2.55,0,1,1,313,403.6,2.7,2.7,0,0,1,310.43,400.77Z" transform="translate(-18.13 -22.51)"/></g><g id="Mobile"><polygon class="cls-3" points="182.53 424.83 238.12 438.46 247.72 389.72 288.33 327.47 205.69 307.2 182.53 424.83"/><path class="cls-4" d="M228.66,351.09c8.3,14.41,20.63,36.38,7.08,53.25C229.71,399.15,221.88,371.48,228.66,351.09Z" transform="translate(-18.13 -22.51)"/><path class="cls-3" d="M228.66,351.09c5.69,11.18,13.78,31.59,8.67,49.63S217.76,378.41,228.66,351.09Z" transform="translate(-18.13 -22.51)"/><polygon class="cls-5" points="179.62 392.6 251.12 410.02 241.62 458.58 166.71 458.58 179.62 392.6"/><path class="cls-6" d="M257.77,162.59H338c15.54,0,28.25,10.15,28.25,22.55v170c0,12.4-12.71,22.55-28.25,22.55H257.77c-15.54,0-28.25-10.15-28.25-22.55v-170C229.52,172.74,242.23,162.59,257.77,162.59Z" transform="translate(-18.13 -22.51)"/><path class="cls-5" d="M238.29,180.63H357.48a.38.38,0,0,1,.42.32V357.53a.38.38,0,0,1-.42.32H238.29a.38.38,0,0,1-.42-.32V181A.38.38,0,0,1,238.29,180.63Z" transform="translate(-18.13 -22.51)"/><path class="cls-7" d="M283.06,167.92h29.65a1.56,1.56,0,0,1,1.46,1.63h0a1.56,1.56,0,0,1-1.46,1.63H283.06a1.56,1.56,0,0,1-1.46-1.63h0A1.55,1.55,0,0,1,283.06,167.92Z" transform="translate(-18.13 -22.51)"/><path class="cls-7" d="M297.88,362a5.54,5.54,0,1,1-4.94,5.51A5.25,5.25,0,0,1,297.88,362Z" transform="translate(-18.13 -22.51)"/><rect class="cls-8" x="229.19" y="198.87" width="41.62" height="35.02"/><path class="cls-8" d="M329.33,230.17H295.76a1.79,1.79,0,0,1-1.68-1.88h0a1.79,1.79,0,0,1,1.68-1.88h33.57a1.79,1.79,0,0,1,1.69,1.88h0A1.79,1.79,0,0,1,329.33,230.17Z" transform="translate(-18.13 -22.51)"/><path class="cls-8" d="M329.33,238.54H295.76a1.79,1.79,0,0,1-1.68-1.88h0a1.78,1.78,0,0,1,1.68-1.87h33.57a1.79,1.79,0,0,1,1.69,1.87h0A1.79,1.79,0,0,1,329.33,238.54Z" transform="translate(-18.13 -22.51)"/><path class="cls-8" d="M309,246.92H295.76a1.79,1.79,0,0,1-1.68-1.88h0a1.79,1.79,0,0,1,1.68-1.88H309a1.79,1.79,0,0,1,1.68,1.88h0A1.79,1.79,0,0,1,309,246.92Z" transform="translate(-18.13 -22.51)"/><path class="cls-8" d="M329.33,278.14H295.76a1.79,1.79,0,0,1-1.68-1.88h0a1.79,1.79,0,0,1,1.68-1.88h33.57a1.79,1.79,0,0,1,1.69,1.88h0A1.79,1.79,0,0,1,329.33,278.14Z" transform="translate(-18.13 -22.51)"/><path class="cls-8" d="M329.33,286.51H295.76a1.79,1.79,0,0,1-1.68-1.88h0a1.78,1.78,0,0,1,1.68-1.87h33.57a1.79,1.79,0,0,1,1.69,1.87h0A1.79,1.79,0,0,1,329.33,286.51Z" transform="translate(-18.13 -22.51)"/><path class="cls-8" d="M309,294.89H295.76a1.79,1.79,0,0,1-1.68-1.88h0a1.79,1.79,0,0,1,1.68-1.88H309a1.79,1.79,0,0,1,1.68,1.88h0A1.79,1.79,0,0,1,309,294.89Z" transform="translate(-18.13 -22.51)"/><path class="cls-8" d="M329.33,323.88H295.76a1.79,1.79,0,0,1-1.68-1.88h0a1.78,1.78,0,0,1,1.68-1.87h33.57A1.79,1.79,0,0,1,331,322h0A1.79,1.79,0,0,1,329.33,323.88Z" transform="translate(-18.13 -22.51)"/><path class="cls-8" d="M329.33,332.26H295.76a1.79,1.79,0,0,1-1.68-1.88h0a1.79,1.79,0,0,1,1.68-1.88h33.57a1.79,1.79,0,0,1,1.69,1.88h0A1.8,1.8,0,0,1,329.33,332.26Z" transform="translate(-18.13 -22.51)"/><path class="cls-8" d="M309,340.63H295.76a1.79,1.79,0,0,1-1.68-1.88h0a1.78,1.78,0,0,1,1.68-1.87H309a1.78,1.78,0,0,1,1.68,1.87h0A1.79,1.79,0,0,1,309,340.63Z" transform="translate(-18.13 -22.51)"/><rect class="cls-8" x="229.19" y="244.62" width="41.62" height="35.02"/><rect class="cls-8" x="229.19" y="290.36" width="41.62" height="35.02"/><ellipse class="cls-9" cx="250" cy="216.03" rx="10.14" ry="11.32"/><polygon class="cls-1" points="247.31 210.03 247.31 222.04 255.43 216.03 247.31 210.03"/><ellipse class="cls-9" cx="250" cy="262.12" rx="10.14" ry="11.32"/><polygon class="cls-1" points="247.31 256.12 247.31 268.13 255.43 262.12 247.31 256.12"/><ellipse class="cls-9" cx="250" cy="308.78" rx="10.14" ry="11.32"/><polygon class="cls-1" points="247.31 302.77 247.31 314.79 255.43 308.78 247.31 302.77"/><path class="cls-8" d="M339.67,231.06h-.83a.3.3,0,0,0-.28.31v2.57a.3.3,0,0,0,.28.31h.83a.29.29,0,0,0,.28-.31v-2.57A.29.29,0,0,0,339.67,231.06Z" transform="translate(-18.13 -22.51)"/><path class="cls-8" d="M343.42,231.36h-.05a.47.47,0,0,0,.45-.49.48.48,0,0,0-.45-.5H342a2.65,2.65,0,0,0,.42-1.19c0-.64-.31-1-.52-1a.35.35,0,0,0-.41.27c-.06.19.05.56,0,.68a12.1,12.1,0,0,1-.8,1.08,2,2,0,0,0-.33,1.18v2.16a.3.3,0,0,0,.28.31h2.63a.36.36,0,0,0,0-.72h0a.44.44,0,0,0,0-.87h.14a.44.44,0,0,0,0-.88Z" transform="translate(-18.13 -22.51)"/><path class="cls-8" d="M350.87,233.11h.83a.29.29,0,0,0,.28-.31v-2.57a.29.29,0,0,0-.28-.31h-.83a.3.3,0,0,0-.28.31v2.57A.3.3,0,0,0,350.87,233.11Z" transform="translate(-18.13 -22.51)"/><path class="cls-8" d="M347.12,232.81h.05a.5.5,0,0,0,0,1h1.42a2.86,2.86,0,0,0-.41,1.2c0,.63.31,1,.51,1a.34.34,0,0,0,.41-.27c.06-.19,0-.55,0-.68a10.25,10.25,0,0,1,.8-1.08,2,2,0,0,0,.32-1.18v-2.16a.29.29,0,0,0-.27-.31h-2.64a.35.35,0,0,0-.32.36.35.35,0,0,0,.32.36h0a.44.44,0,0,0,0,.88h-.15a.41.41,0,0,0-.39.43A.42.42,0,0,0,347.12,232.81Z" transform="translate(-18.13 -22.51)"/><path class="cls-8" d="M339.67,278.53h-.83a.3.3,0,0,0-.28.31v2.57a.3.3,0,0,0,.28.31h.83a.29.29,0,0,0,.28-.31v-2.57A.29.29,0,0,0,339.67,278.53Z" transform="translate(-18.13 -22.51)"/><path class="cls-8" d="M343.42,278.83h-.05a.49.49,0,0,0,0-1H342a2.74,2.74,0,0,0,.42-1.2c0-.64-.31-1-.52-1a.35.35,0,0,0-.41.27c-.06.19.05.56,0,.68a12.1,12.1,0,0,1-.8,1.08,2,2,0,0,0-.33,1.18V281a.3.3,0,0,0,.28.31h2.63a.36.36,0,0,0,0-.72h0a.44.44,0,0,0,0-.87h.14a.44.44,0,0,0,0-.88Z" transform="translate(-18.13 -22.51)"/><path class="cls-8" d="M350.87,280.58h.83a.29.29,0,0,0,.28-.31V277.7a.29.29,0,0,0-.28-.31h-.83a.3.3,0,0,0-.28.31v2.57A.3.3,0,0,0,350.87,280.58Z" transform="translate(-18.13 -22.51)"/><path class="cls-8" d="M347.12,280.28h.05a.5.5,0,0,0,0,1h1.42a2.86,2.86,0,0,0-.41,1.2c0,.63.31,1,.51,1a.34.34,0,0,0,.41-.27c.06-.19,0-.55,0-.68a9.52,9.52,0,0,1,.8-1.07,2,2,0,0,0,.32-1.19v-2.16a.28.28,0,0,0-.27-.3h-2.64a.36.36,0,0,0,0,.71h0a.44.44,0,0,0,0,.88h-.15a.41.41,0,0,0-.39.43A.42.42,0,0,0,347.12,280.28Z" transform="translate(-18.13 -22.51)"/><path class="cls-8" d="M339.67,324.26h-.83a.3.3,0,0,0-.28.31v2.57a.3.3,0,0,0,.28.31h.83a.29.29,0,0,0,.28-.31v-2.57A.29.29,0,0,0,339.67,324.26Z" transform="translate(-18.13 -22.51)"/><path class="cls-8" d="M343.42,324.56h-.05a.5.5,0,0,0,0-1H342a2.69,2.69,0,0,0,.42-1.2c0-.63-.31-1-.52-1a.35.35,0,0,0-.41.27c-.06.19.05.55,0,.68a12.1,12.1,0,0,1-.8,1.08,2,2,0,0,0-.33,1.18v2.16a.3.3,0,0,0,.28.31h2.63a.36.36,0,0,0,0-.72h0a.42.42,0,0,0,.39-.44.41.41,0,0,0-.39-.43h.14a.44.44,0,0,0,0-.88Z" transform="translate(-18.13 -22.51)"/><path class="cls-8" d="M350.87,326.31h.83A.29.29,0,0,0,352,326v-2.57a.29.29,0,0,0-.28-.31h-.83a.3.3,0,0,0-.28.31V326A.3.3,0,0,0,350.87,326.31Z" transform="translate(-18.13 -22.51)"/><path class="cls-8" d="M347.12,326h.05a.47.47,0,0,0-.44.49.48.48,0,0,0,.44.5h1.42a2.77,2.77,0,0,0-.41,1.19c0,.64.31,1,.51,1a.34.34,0,0,0,.41-.27c.06-.19,0-.55,0-.68a10.25,10.25,0,0,1,.8-1.08,2,2,0,0,0,.32-1.18v-2.16a.29.29,0,0,0-.27-.31h-2.64a.36.36,0,0,0,0,.72h0a.44.44,0,0,0,0,.87h-.15a.44.44,0,0,0,0,.88Z" transform="translate(-18.13 -22.51)"/><rect class="cls-9" x="219.69" y="158.12" width="120.11" height="13.94"/><rect class="cls-8" x="219.69" y="172.06" width="120.11" height="18.36"/><path class="cls-1" d="M252.27,184.78a.66.66,0,0,1-.63.7h-7.22a.66.66,0,0,1-.63-.7h0a.67.67,0,0,1,.63-.71h7.22a.67.67,0,0,1,.63.71Z" transform="translate(-18.13 -22.51)"/><path class="cls-1" d="M252.27,187.6a.67.67,0,0,1-.63.71h-7.22a.67.67,0,0,1-.63-.71h0a.66.66,0,0,1,.63-.7h7.22a.66.66,0,0,1,.63.7Z" transform="translate(-18.13 -22.51)"/><path class="cls-1" d="M252.27,190.43a.66.66,0,0,1-.63.7h-7.22a.66.66,0,0,1-.63-.7h0a.67.67,0,0,1,.63-.71h7.22a.67.67,0,0,1,.63.71Z" transform="translate(-18.13 -22.51)"/><path class="cls-1" d="M350.84,186.56l-.21-.55a11.3,11.3,0,0,0,.45-1.28l-.65-.7a8.4,8.4,0,0,0-1.14.51l-.51-.23a10.81,10.81,0,0,0-.51-1.24h-.91a9,9,0,0,0-.48,1.24l-.51.23a8.55,8.55,0,0,0-1.16-.48l-.65.7A10.81,10.81,0,0,0,345,186l-.21.56a9.89,9.89,0,0,0-1.14.55v1a8.23,8.23,0,0,0,1.14.52l.21.56a9.48,9.48,0,0,0-.44,1.27l.64.71a9.32,9.32,0,0,0,1.15-.52l.5.23a9.46,9.46,0,0,0,.52,1.25h.91a10.59,10.59,0,0,0,.47-1.25l.51-.23a9.55,9.55,0,0,0,1.17.49l.64-.71a9.24,9.24,0,0,0-.47-1.25l.21-.55a8.57,8.57,0,0,0,1.14-.56v-1A8.23,8.23,0,0,0,350.84,186.56Zm-1.68,1a1.33,1.33,0,1,1-1.33-1.45A1.4,1.4,0,0,1,349.16,187.6Z" transform="translate(-18.13 -22.51)"/><path class="cls-1" d="M328.53,203.75a4.41,4.41,0,0,1-4.16,4.63h-53a4.41,4.41,0,0,1-4.15-4.63h0a4.41,4.41,0,0,1,4.15-4.63h53a4.41,4.41,0,0,1,4.16,4.63Z" transform="translate(-18.13 -22.51)"/><path class="cls-8" d="M323.16,201.63a1.71,1.71,0,0,0-2.6,0,2.22,2.22,0,0,0,0,2.9,1.7,1.7,0,0,0,2.13.37l1.41,1.57.8-.89L323.49,204A2.23,2.23,0,0,0,323.16,201.63Zm-.54,2.3a1,1,0,0,1-1.52,0,1.3,1.3,0,0,1,0-1.7,1,1,0,0,1,1.52,0A1.3,1.3,0,0,1,322.62,203.93Z" transform="translate(-18.13 -22.51)"/><path class="cls-3" d="M355.68,414.59l25,66.5h53q3.49-3.48,6.85-7.14l-25.81-71.88Z" transform="translate(-18.13 -22.51)"/><polygon class="cls-5" points="415.18 407.57 433.01 458.58 356.96 458.58 349.21 436.89 415.18 407.57"/><path class="cls-3" d="M303.59,362.5l28.83,45.67c3.71,5.88,23,24.07,28.56,20.41s-2.28-23.76-6.13-29.54l-22.1-30.92C320.09,350.4,309.19,357.81,303.59,362.5Z" transform="translate(-18.13 -22.51)"/><path class="cls-3" d="M312.5,271.75,335.74,331c1.85-10.72,16.5-12.36,21.8-2.25.55-11.28,14.22-14.09,20.63-6,2-10.3,16.74-11.3,21.08-.34l19.89,50.19c5.58,14.09,5.93,35.59,3.4,45.44-7.53,29.19-42.11,30.12-54.28,21.14-9.49-7-17-10.8-20-18.3l-57-139C284,264.31,306.91,257.14,312.5,271.75Z" transform="translate(-18.13 -22.51)"/><path class="cls-4" d="M385.8,340s-3.76-10-7.15-18.94a11.16,11.16,0,0,0-.48,1.7,12.69,12.69,0,0,0-1.84-1.89c4.22,8.67,9.47,19.13,9.47,19.13Zm-50-9.33a11.5,11.5,0,0,1,.85-2.62c3.76,10,9.84,27.23,9.84,27.23s-7.75-17-10.75-24.31c0,.11.06,0,.06-.3Zm18.92-5.6a12.88,12.88,0,0,1,2.82,3.65,14.05,14.05,0,0,1,.28-2.13c3.82,9.81,8.51,22,8.51,22S359,334.14,354.72,325.06Z" transform="translate(-18.13 -22.51)"/><path class="cls-10" d="M309.61,272.36l2,5.08c-3.61,7.22-9.12,9.61-16.21,8l-2-4.82C288.05,267.46,305.5,261.43,309.61,272.36Z" transform="translate(-18.13 -22.51)"/><path class="cls-10" d="M306.55,360.72c-1,.55-2,1.16-3,1.78l9.93,15.73C317.56,373.2,311,365.58,306.55,360.72Z" transform="translate(-18.13 -22.51)"/><polygon class="cls-4" points="304.55 336.06 318.61 370.38 300.55 335.34 304.55 336.06"/><path class="cls-3" d="M210.27,395l9,5.68,2.21-15.58,15.06-79.17c3.13-16.46-6.05-22-15.15-25.07l-16,84.22C203.93,372.92,204.38,391.29,210.27,395Z" transform="translate(-18.13 -22.51)"/><path class="cls-10" d="M224.23,287.63c-1-.44-2.12-.84-3.19-1.21l-3.58,18.83C223.51,305.13,224,294.54,224.23,287.63Z" transform="translate(-18.13 -22.51)"/></g><g id="mobile-2" data-name="mobile"><g class="cls-11"><path class="cls-1" d="M467.14,117.54H424.62a5,5,0,0,0-4.72,5.27v30.88a5,5,0,0,0,4.72,5.27h15l6.23,9,6.23-9h15a5,5,0,0,0,4.73-5.27V122.81A5,5,0,0,0,467.14,117.54Z" transform="translate(-18.13 -22.51)"/><rect class="cls-12" x="409.61" y="102.84" width="35.26" height="1.32"/><rect class="cls-12" x="409.61" y="106.42" width="35.26" height="1.32"/><rect class="cls-12" x="409.61" y="110" width="35.26" height="1.32"/><rect class="cls-12" x="409.61" y="113.58" width="7" height="1.32"/><rect class="cls-12" x="419.06" y="113.58" width="25.81" height="1.32"/><rect class="cls-12" x="409.61" y="117.15" width="35.26" height="1.32"/><rect class="cls-12" x="409.61" y="120.73" width="21.93" height="1.32"/><rect class="cls-12" x="434.16" y="120.73" width="10.71" height="1.32"/><rect class="cls-12" x="409.61" y="124.31" width="35.26" height="1.32"/><rect class="cls-12" x="409.61" y="127.88" width="18.9" height="1.32"/></g><g class="cls-11"><path class="cls-1" d="M146.43,342.43c-13.11,0-23.78-11.9-23.78-26.53s10.67-26.53,23.78-26.53,23.77,11.9,23.77,26.53S159.54,342.43,146.43,342.43Zm0-50.16c-11.68,0-21.18,10.6-21.18,23.63s9.5,23.64,21.18,23.64,21.18-10.61,21.18-23.64S158.11,292.27,146.43,292.27Z" transform="translate(-18.13 -22.51)"/><path class="cls-12" d="M158.41,317.35h-12a1.38,1.38,0,0,1-1.3-1.45V295.64a1.3,1.3,0,1,1,2.59,0v18.81h10.69a1.46,1.46,0,0,1,0,2.9Z" transform="translate(-18.13 -22.51)"/></g><g class="cls-11"><ellipse class="cls-1" cx="493.58" cy="309.72" rx="17" ry="18.97"/><polygon class="cls-9" points="489.07 299.65 489.07 319.79 502.69 309.72 489.07 299.65"/></g><g class="cls-11"><rect class="cls-1" x="113.43" y="115.69" width="95.23" height="81.96"/><rect class="cls-13" x="123.36" y="172.97" width="21.48" height="16.29"/><rect class="cls-13" x="150.3" y="172.97" width="21.48" height="16.29"/><rect class="cls-8" x="132.23" y="123.97" width="57.61" height="43.7"/><rect class="cls-13" x="177.23" y="172.97" width="21.48" height="16.29"/><path class="cls-13" d="M145.37,175.54a.77.77,0,0,1-.6-.3l-5-6.33a1,1,0,0,1,0-1.18l5-6.32a.75.75,0,0,1,1.13-.08,1,1,0,0,1,.07,1.26l-4.56,5.73,4.56,5.74a1,1,0,0,1-.07,1.26A.74.74,0,0,1,145.37,175.54Z" transform="translate(-18.13 -22.51)"/><path class="cls-13" d="M213,175.54a.77.77,0,0,0,.6-.3l5-6.33a1,1,0,0,0,0-1.18l-5-6.32a.75.75,0,0,0-1.13-.08,1,1,0,0,0-.06,1.26l4.55,5.73-4.55,5.74a1,1,0,0,0,.06,1.26A.78.78,0,0,0,213,175.54Z" transform="translate(-18.13 -22.51)"/><ellipse class="cls-14" cx="175.88" cy="145.81" rx="8.23" ry="9.18"/><path class="cls-1" d="M195.36,174.39a3.29,3.29,0,0,1-3.09,3.46H173.9a3.29,3.29,0,0,1-3.09-3.46h0a3.29,3.29,0,0,1,3.09-3.45h18.37a3.29,3.29,0,0,1,3.09,3.45Z" transform="translate(-18.13 -22.51)"/><path class="cls-1" d="M181.83,166.86a1.45,1.45,0,0,1-1.36,1.52H164.83a1.45,1.45,0,0,1-1.36-1.52h0a1.45,1.45,0,0,1,1.36-1.52h15.64a1.45,1.45,0,0,1,1.36,1.52Z" transform="translate(-18.13 -22.51)"/><path class="cls-1" d="M183.09,157.31a1.75,1.75,0,0,1-1.65,1.83H171a1.75,1.75,0,0,1-1.65-1.83h0a1.75,1.75,0,0,1,1.65-1.84h10.48a1.75,1.75,0,0,1,1.65,1.84Z" transform="translate(-18.13 -22.51)"/></g><g class="cls-11"><rect class="cls-1" x="350.8" y="165.27" width="95.23" height="81.96"/><rect class="cls-13" x="363.27" y="174.03" width="70.28" height="64.46"/><polygon class="cls-1" points="392.66 196.65 407.58 206.25 392.66 215.87 392.66 196.65"/><path class="cls-1" d="M416.54,245.11c-8.07,0-14.65-7.33-14.65-16.34s6.58-16.35,14.65-16.35,14.65,7.33,14.65,16.35S424.62,245.11,416.54,245.11Zm0-30.4c-6.94,0-12.6,6.3-12.6,14.06s5.66,14,12.6,14,12.6-6.3,12.6-14S423.49,214.71,416.54,214.71Z" transform="translate(-18.13 -22.51)"/><path class="cls-15" d="M445.88,256.6a.85.85,0,0,1-.8.9H388a.85.85,0,0,1-.8-.9h0a.85.85,0,0,1,.8-.89h57.08a.84.84,0,0,1,.8.89Z" transform="translate(-18.13 -22.51)"/><path class="cls-9" d="M417.22,256.6a.85.85,0,0,1-.8.9H388a.85.85,0,0,1-.8-.9h0a.85.85,0,0,1,.8-.89h28.42a.85.85,0,0,1,.8.89Z" transform="translate(-18.13 -22.51)"/><ellipse class="cls-9" cx="398.41" cy="234.09" rx="1.93" ry="2.15"/><path class="cls-13" d="M464.16,199.82h0c-5.8,0-10.5-5.24-10.5-11.71v-.66c0-6.46,4.7-11.7,10.5-11.7h0c5.79,0,10.49,5.24,10.49,11.7v.66C474.65,194.58,470,199.82,464.16,199.82Z" transform="translate(-18.13 -22.51)"/><path class="cls-1" d="M465.08,187.78l4.14-4.62a.8.8,0,0,0,0-1,.61.61,0,0,0-.92,0l-4.14,4.63L460,182.13a.61.61,0,0,0-.92,0,.8.8,0,0,0,0,1l4.15,4.62-4.15,4.63a.79.79,0,0,0,0,1,.63.63,0,0,0,.46.21.6.6,0,0,0,.46-.21l4.15-4.62,4.14,4.62a.6.6,0,0,0,.46.21.63.63,0,0,0,.46-.21.79.79,0,0,0,0-1Z" transform="translate(-18.13 -22.51)"/></g></g></svg>